<?xml version="1.0" standalone="no"?>
<!DOCTYPE svg PUBLIC "-//W3C//DTD SVG 20010904//EN"
 "http://www.w3.org/TR/2001/REC-SVG-20010904/DTD/svg10.dtd">
<svg version="1.0" xmlns="http://www.w3.org/2000/svg"
 width="128.000000pt" height="128.000000pt" viewBox="0 0 128.000000 128.000000"
 preserveAspectRatio="xMidYMid meet">

<g transform="translate(0.000000,128.000000) scale(0.100000,-0.100000)"
fill="#000000" stroke="none">
<path d="M501 1154 c-220 -59 -391 -275 -391 -494 0 -62 16 -92 60 -115 43
-22 897 -22 940 0 44 23 60 53 60 115 0 221 -172 437 -395 495 -73 19 -202 18
-274 -1z m184 -100 c31 -14 65 -64 65 -94 0 -7 -7 -27 -16 -45 -19 -41 -73
-69 -114 -60 -37 8 -77 48 -85 85 -9 40 19 95 58 114 40 20 51 20 92 0z m-256
-218 c31 -17 51 -54 51 -97 0 -43 -56 -99 -100 -99 -40 0 -85 26 -99 57 -45
100 50 189 148 139z m552 -15 c68 -68 17 -181 -82 -181 -45 0 -99 56 -99 102
1 66 43 107 113 108 30 0 45 -7 68 -29z"/>
<path d="M461 413 c-61 -205 -62 -234 -14 -279 25 -23 30 -24 193 -24 163 0
168 1 193 24 48 45 47 74 -14 279 l-20 67 -159 0 -159 0 -20 -67z"/>
</g>
</svg>
